<svg version="1.1" xmlns="http://www.w3.org/2000/svg" viewBox="0 0 3313.1139562017397 3253.357133769999" width="3313.1139562017397" height="3253.357133769999">
  <!-- svg-source:excalidraw -->

  <defs>
    <style class="style-fonts">
      @font-face {
        font-family: "Virgil";
        src: url("https://excalidraw.com/Virgil.woff2");
      }
      @font-face {
        font-family: "Cascadia";
        src: url("https://excalidraw.com/Cascadia.woff2");
      }
    </style>
  </defs>
  <rect x="0" y="0" width="3313.1139562017397" height="3253.357133769999" fill="#ffffff"></rect><g stroke-linecap="round" transform="translate(10 10) rotate(0 1646.5569781008699 1616.6785668849996)"><path d="M3293.11 1616.68 C3293.11 1629.7, 3292.95 1642.73, 3292.63 1655.74 C3292.31 1668.76, 3291.83 1681.78, 3291.19 1694.79 C3290.55 1707.79, 3289.75 1720.79, 3288.79 1733.78 C3287.83 1746.77, 3286.71 1759.75, 3285.43 1772.71 C3284.15 1785.67, 3282.71 1798.62, 3281.11 1811.55 C3279.51 1824.47, 3277.75 1837.39, 3275.84 1850.27 C3273.92 1863.16, 3271.84 1876.02, 3269.61 1888.86 C3267.38 1901.69, 3264.99 1914.51, 3262.44 1927.29 C3259.89 1940.06, 3257.18 1952.82, 3254.32 1965.53 C3251.46 1978.25, 3248.44 1990.93, 3245.27 2003.58 C3242.09 2016.22, 3238.76 2028.83, 3235.28 2041.39 C3231.8 2053.96, 3228.16 2066.48, 3224.36 2078.96 C3220.57 2091.44, 3216.62 2103.88, 3212.53 2116.26 C3208.43 2128.64, 3204.18 2140.98, 3199.77 2153.27 C3195.37 2165.55, 3190.82 2177.79, 3186.11 2189.96 C3181.41 2202.14, 3176.56 2214.26, 3171.56 2226.32 C3166.56 2238.38, 3161.4 2250.38, 3156.11 2262.32 C3150.81 2274.26, 3145.37 2286.14, 3139.78 2297.95 C3134.19 2309.76, 3128.45 2321.5, 3122.58 2333.18 C3116.7 2344.85, 3110.67 2356.46, 3104.51 2367.99 C3098.35 2379.52, 3092.04 2390.98, 3085.6 2402.36 C3079.15 2413.74, 3072.56 2425.05, 3065.84 2436.27 C3059.12 2447.49, 3052.25 2458.64, 3045.25 2469.7 C3038.26 2480.76, 3031.12 2491.75, 3023.85 2502.64 C3016.58 2513.53, 3009.18 2524.34, 3001.65 2535.06 C2994.11 2545.77, 2986.44 2556.4, 2978.65 2566.94 C2970.85 2577.47, 2962.93 2587.92, 2954.87 2598.27 C2946.82 2608.61, 2938.64 2618.87, 2930.34 2629.02 C2922.03 2639.17, 2913.6 2649.23, 2905.05 2659.18 C2896.49 2669.13, 2887.82 2678.99, 2879.02 2688.73 C2870.23 2698.48, 2861.31 2708.13, 2852.28 2717.66 C2843.25 2727.2, 2834.1 2736.63, 2824.83 2745.95 C2815.57 2755.27, 2806.19 2764.48, 2796.7 2773.57 C2787.21 2782.67, 2777.6 2791.65, 2767.89 2800.52 C2758.18 2809.39, 2748.35 2818.14, 2738.43 2826.78 C2728.5 2835.41, 2718.46 2843.93, 2708.33 2852.33 C2698.19 2860.73, 2687.95 2869.01, 2677.61 2877.16 C2667.27 2885.32, 2656.82 2893.35, 2646.28 2901.26 C2635.75 2909.16, 2625.11 2916.95, 2614.38 2924.6 C2603.65 2932.25, 2592.82 2939.78, 2581.91 2947.18 C2570.99 2954.58, 2559.98 2961.85, 2548.89 2968.98 C2537.8 2976.12, 2526.61 2983.12, 2515.35 2990 C2504.08 2996.87, 2492.73 3003.6, 2481.3 3010.21 C2469.86 3016.81, 2458.35 3023.28, 2446.76 3029.6 C2435.17 3035.93, 2423.49 3042.12, 2411.75 3048.18 C2400.01 3054.23, 2388.19 3060.14, 2376.3 3065.91 C2364.41 3071.68, 2352.45 3077.32, 2340.42 3082.8 C2328.39 3088.29, 2316.29 3093.64, 2304.13 3098.84 C2291.97 3104.04, 2279.75 3109.09, 2267.47 3114.01 C2255.18 3118.92, 2242.83 3123.68, 2230.43 3128.3 C2218.03 3132.92, 2205.57 3137.39, 2193.06 3141.71 C2180.55 3146.03, 2167.98 3150.21, 2155.37 3154.23 C2142.76 3158.26, 2130.09 3162.13, 2117.38 3165.85 C2104.67 3169.58, 2091.92 3173.15, 2079.12 3176.57 C2066.32 3179.99, 2053.48 3183.26, 2040.6 3186.38 C2027.73 3189.5, 2014.81 3192.46, 2001.86 3195.27 C1988.91 3198.08, 1975.92 3200.74, 1962.9 3203.24 C1949.89 3205.74, 1936.84 3208.09, 1923.77 3210.28 C1910.69 3212.47, 1897.59 3214.51, 1884.47 3216.39 C1871.34 3218.27, 1858.19 3220, 1845.03 3221.57 C1831.86 3223.14, 1818.67 3224.55, 1805.47 3225.81 C1792.27 3227.07, 1779.05 3228.17, 1765.83 3229.11 C1752.6 3230.05, 1739.35 3230.84, 1726.11 3231.47 C1712.86 3232.1, 1699.6 3232.57, 1686.34 3232.89 C1673.09 3233.2, 1659.82 3233.36, 1646.56 3233.36 C1633.29 3233.36, 1620.03 3233.2, 1606.77 3232.89 C1593.51 3232.57, 1580.25 3232.1, 1567.01 3231.47 C1553.76 3230.84, 1540.52 3230.05, 1527.29 3229.11 C1514.06 3228.17, 1500.84 3227.07, 1487.64 3225.81 C1474.44 3224.55, 1461.25 3223.14, 1448.09 3221.57 C1434.92 3220, 1421.77 3218.27, 1408.65 3216.39 C1395.52 3214.51, 1382.42 3212.47, 1369.35 3210.28 C1356.27 3208.09, 1343.22 3205.74, 1330.21 3203.24 C1317.19 3200.74, 1304.21 3198.08, 1291.26 3195.27 C1278.31 3192.46, 1265.39 3189.5, 1252.51 3186.38 C1239.63 3183.26, 1226.79 3179.99, 1213.99 3176.57 C1201.2 3173.15, 1188.44 3169.58, 1175.73 3165.85 C1163.02 3162.13, 1150.36 3158.26, 1137.74 3154.23 C1125.13 3150.21, 1112.56 3146.03, 1100.05 3141.71 C1087.54 3137.39, 1075.08 3132.92, 1062.68 3128.3 C1050.28 3123.68, 1037.93 3118.92, 1025.65 3114.01 C1013.37 3109.09, 1001.14 3104.04, 988.98 3098.84 C976.82 3093.64, 964.72 3088.29, 952.7 3082.8 C940.67 3077.32, 928.71 3071.68, 916.82 3065.91 C904.93 3060.14, 893.11 3054.23, 881.36 3048.18 C869.62 3042.12, 857.95 3035.93, 846.36 3029.6 C834.77 3023.28, 823.25 3016.81, 811.82 3010.21 C800.39 3003.6, 789.03 2996.87, 777.77 2990 C766.5 2983.12, 755.32 2976.12, 744.22 2968.98 C733.13 2961.85, 722.12 2954.58, 711.21 2947.18 C700.29 2939.78, 689.46 2932.25, 678.74 2924.6 C668.01 2916.95, 657.37 2909.16, 646.83 2901.26 C636.29 2893.35, 625.85 2885.32, 615.51 2877.16 C605.17 2869.01, 594.92 2860.73, 584.79 2852.33 C574.65 2843.93, 564.61 2835.41, 554.69 2826.78 C544.76 2818.14, 534.94 2809.39, 525.23 2800.52 C515.51 2791.65, 505.91 2782.67, 496.42 2773.57 C486.93 2764.48, 477.55 2755.27, 468.28 2745.95 C459.02 2736.63, 449.87 2727.2, 440.83 2717.66 C431.8 2708.13, 422.89 2698.48, 414.09 2688.73 C405.3 2678.99, 396.62 2669.13, 388.07 2659.18 C379.52 2649.23, 371.08 2639.17, 362.78 2629.02 C354.47 2618.87, 346.29 2608.61, 338.24 2598.27 C330.19 2587.92, 322.26 2577.47, 314.46 2566.94 C306.67 2556.4, 299 2545.77, 291.47 2535.06 C283.93 2524.34, 276.53 2513.53, 269.26 2502.64 C261.99 2491.75, 254.86 2480.76, 247.86 2469.7 C240.86 2458.64, 234 2447.49, 227.27 2436.27 C220.55 2425.05, 213.96 2413.74, 207.52 2402.36 C201.07 2390.98, 194.77 2379.52, 188.6 2367.99 C182.44 2356.46, 176.42 2344.85, 170.54 2333.18 C164.66 2321.5, 158.93 2309.76, 153.34 2297.95 C147.75 2286.14, 142.3 2274.26, 137.01 2262.32 C131.71 2250.38, 126.56 2238.38, 121.56 2226.32 C116.56 2214.26, 111.7 2202.14, 107 2189.96 C102.3 2177.79, 97.74 2165.55, 93.34 2153.27 C88.94 2140.98, 84.69 2128.64, 80.59 2116.26 C76.49 2103.88, 72.54 2091.44, 68.75 2078.96 C64.96 2066.48, 61.32 2053.96, 57.83 2041.39 C54.35 2028.83, 51.02 2016.22, 47.85 2003.58 C44.67 1990.93, 41.65 1978.25, 38.79 1965.53 C35.93 1952.82, 33.22 1940.06, 30.68 1927.29 C28.13 1914.51, 25.74 1901.69, 23.5 1888.86 C21.27 1876.02, 19.19 1863.16, 17.28 1850.27 C15.36 1837.39, 13.6 1824.47, 12.01 1811.55 C10.41 1798.62, 8.97 1785.67, 7.69 1772.71 C6.41 1759.75, 5.29 1746.77, 4.33 1733.78 C3.36 1720.79, 2.56 1707.79, 1.92 1694.79 C1.28 1681.78, 0.8 1668.76, 0.48 1655.74 C0.16 1642.73, 0 1629.7, 0 1616.68 C0 1603.66, 0.16 1590.63, 0.48 1577.61 C0.8 1564.6, 1.28 1551.58, 1.92 1538.57 C2.56 1525.56, 3.36 1512.56, 4.33 1499.57 C5.29 1486.59, 6.41 1473.61, 7.69 1460.65 C8.97 1447.69, 10.41 1434.74, 12.01 1421.81 C13.6 1408.88, 15.36 1395.97, 17.28 1383.09 C19.19 1370.2, 21.27 1357.34, 23.5 1344.5 C25.74 1331.66, 28.13 1318.85, 30.68 1306.07 C33.22 1293.29, 35.93 1280.54, 38.79 1267.82 C41.65 1255.11, 44.67 1242.43, 47.85 1229.78 C51.02 1217.14, 54.35 1204.53, 57.83 1191.97 C61.32 1179.4, 64.96 1166.87, 68.75 1154.4 C72.54 1141.92, 76.49 1129.48, 80.59 1117.1 C84.69 1104.71, 88.94 1092.37, 93.34 1080.09 C97.74 1067.81, 102.3 1055.57, 107 1043.4 C111.7 1031.22, 116.56 1019.1, 121.56 1007.04 C126.56 994.98, 131.71 982.97, 137.01 971.03 C142.3 959.1, 147.75 947.22, 153.34 935.41 C158.93 923.6, 164.66 911.85, 170.54 900.18 C176.42 888.51, 182.44 876.9, 188.6 865.37 C194.77 853.84, 201.07 842.38, 207.52 831 C213.96 819.62, 220.55 808.31, 227.27 797.09 C234 785.86, 240.86 774.72, 247.86 763.65 C254.86 752.59, 261.99 741.61, 269.26 730.72 C276.53 719.83, 283.93 709.02, 291.47 698.3 C299 687.58, 306.67 676.95, 314.46 666.42 C322.26 655.88, 330.19 645.44, 338.24 635.09 C346.29 624.75, 354.47 614.49, 362.78 604.34 C371.08 594.19, 379.52 584.13, 388.07 574.18 C396.62 564.22, 405.3 554.37, 414.09 544.62 C422.89 534.88, 431.8 525.23, 440.83 515.69 C449.87 506.16, 459.02 496.73, 468.28 487.41 C477.55 478.09, 486.93 468.88, 496.42 459.79 C505.91 450.69, 515.51 441.7, 525.23 432.84 C534.94 423.97, 544.76 415.21, 554.69 406.58 C564.61 397.94, 574.65 389.42, 584.79 381.03 C594.92 372.63, 605.17 364.35, 615.51 356.2 C625.85 348.04, 636.29 340.01, 646.83 332.1 C657.37 324.2, 668.01 316.41, 678.74 308.76 C689.46 301.1, 700.29 293.58, 711.21 286.18 C722.12 278.78, 733.13 271.51, 744.22 264.38 C755.32 257.24, 766.5 250.23, 777.77 243.36 C789.03 236.49, 800.39 229.75, 811.82 223.15 C823.25 216.55, 834.77 210.08, 846.36 203.75 C857.95 197.42, 869.62 191.23, 881.36 185.18 C893.11 179.13, 904.93 173.22, 916.82 167.44 C928.71 161.67, 940.67 156.04, 952.7 150.55 C964.72 145.07, 976.82 139.72, 988.98 134.52 C1001.14 129.32, 1013.37 124.26, 1025.65 119.35 C1037.93 114.44, 1050.28 109.68, 1062.68 105.06 C1075.08 100.44, 1087.54 95.97, 1100.05 91.65 C1112.56 87.32, 1125.13 83.15, 1137.74 79.13 C1150.36 75.1, 1163.02 71.23, 1175.73 67.5 C1188.44 63.78, 1201.2 60.21, 1213.99 56.78 C1226.79 53.36, 1239.63 50.09, 1252.51 46.98 C1265.39 43.86, 1278.31 40.9, 1291.26 38.09 C1304.21 35.28, 1317.19 32.62, 1330.21 30.12 C1343.22 27.62, 1356.27 25.27, 1369.35 23.08 C1382.42 20.88, 1395.52 18.85, 1408.65 16.96 C1421.77 15.08, 1434.92 13.36, 1448.09 11.79 C1461.25 10.22, 1474.44 8.8, 1487.64 7.55 C1500.84 6.29, 1514.06 5.19, 1527.29 4.25 C1540.52 3.3, 1553.76 2.52, 1567.01 1.89 C1580.25 1.26, 1593.51 0.79, 1606.77 0.47 C1620.03 0.16, 1633.29 0, 1646.56 0 C1659.82 0, 1673.09 0.16, 1686.34 0.47 C1699.6 0.79, 1712.86 1.26, 1726.11 1.89 C1739.35 2.52, 1752.6 3.3, 1765.83 4.25 C1779.05 5.19, 1792.27 6.29, 1805.47 7.55 C1818.67 8.8, 1831.86 10.22, 1845.03 11.79 C1858.19 13.36, 1871.34 15.08, 1884.47 16.96 C1897.59 18.85, 1910.69 20.88, 1923.77 23.08 C1936.84 25.27, 1949.89 27.62, 1962.9 30.12 C1975.92 32.62, 1988.91 35.28, 2001.86 38.09 C2014.81 40.9, 2027.73 43.86, 2040.6 46.98 C2053.48 50.09, 2066.32 53.36, 2079.12 56.78 C2091.92 60.21, 2104.67 63.78, 2117.38 67.5 C2130.09 71.23, 2142.76 75.1, 2155.37 79.13 C2167.98 83.15, 2180.55 87.32, 2193.06 91.65 C2205.57 95.97, 2218.03 100.44, 2230.43 105.06 C2242.83 109.68, 2255.18 114.44, 2267.47 119.35 C2279.75 124.26, 2291.97 129.32, 2304.13 134.52 C2316.29 139.72, 2328.39 145.07, 2340.42 150.55 C2352.45 156.04, 2364.41 161.67, 2376.3 167.44 C2388.19 173.22, 2400.01 179.13, 2411.75 185.18 C2423.49 191.23, 2435.17 197.42, 2446.76 203.75 C2458.35 210.08, 2469.86 216.55, 2481.3 223.15 C2492.73 229.75, 2504.08 236.49, 2515.35 243.36 C2526.61 250.23, 2537.8 257.24, 2548.89 264.38 C2559.98 271.51, 2570.99 278.78, 2581.91 286.18 C2592.82 293.58, 2603.65 301.1, 2614.38 308.76 C2625.11 316.41, 2635.75 324.2, 2646.28 332.1 C2656.82 340.01, 2667.27 348.04, 2677.61 356.2 C2687.95 364.35, 2698.19 372.63, 2708.33 381.03 C2718.46 389.42, 2728.5 397.94, 2738.43 406.58 C2748.35 415.21, 2758.18 423.97, 2767.89 432.84 C2777.6 441.7, 2787.21 450.69, 2796.7 459.79 C2806.19 468.88, 2815.57 478.09, 2824.83 487.41 C2834.1 496.73, 2843.25 506.16, 2852.28 515.69 C2861.31 525.23, 2870.23 534.88, 2879.02 544.62 C2887.82 554.37, 2896.49 564.22, 2905.05 574.18 C2913.6 584.13, 2922.03 594.19, 2930.34 604.34 C2938.64 614.49, 2946.82 624.75, 2954.87 635.09 C2962.93 645.44, 2970.85 655.88, 2978.65 666.42 C2986.44 676.95, 2994.11 687.58, 3001.65 698.3 C3009.18 709.02, 3016.58 719.83, 3023.85 730.72 C3031.12 741.61, 3038.26 752.59, 3045.25 763.65 C3052.25 774.72, 3059.12 785.86, 3065.84 797.09 C3072.56 808.31, 3079.15 819.62, 3085.6 831 C3092.04 842.38, 3098.35 853.84, 3104.51 865.37 C3110.67 876.9, 3116.7 888.51, 3122.58 900.18 C3128.45 911.85, 3134.19 923.6, 3139.78 935.41 C3145.37 947.22, 3150.81 959.1, 3156.11 971.03 C3161.4 982.97, 3166.56 994.98, 3171.56 1007.04 C3176.56 1019.1, 3181.41 1031.22, 3186.11 1043.4 C3190.82 1055.57, 3195.37 1067.81, 3199.77 1080.09 C3204.18 1092.37, 3208.43 1104.71, 3212.53 1117.1 C3216.62 1129.48, 3220.57 1141.92, 3224.36 1154.4 C3228.16 1166.87, 3231.8 1179.4, 3235.28 1191.97 C3238.76 1204.53, 3242.09 1217.14, 3245.27 1229.78 C3248.44 1242.43, 3251.46 1255.11, 3254.32 1267.82 C3257.18 1280.54, 3259.89 1293.29, 3262.44 1306.07 C3264.99 1318.85, 3267.38 1331.66, 3269.61 1344.5 C3271.84 1357.34, 3273.92 1370.2, 3275.84 1383.09 C3277.75 1395.97, 3279.51 1408.88, 3281.11 1421.81 C3282.71 1434.74, 3284.15 1447.69, 3285.43 1460.65 C3286.71 1473.61, 3287.83 1486.59, 3288.79 1499.57 C3289.75 1512.56, 3290.55 1525.56, 3291.19 1538.57 C3291.83 1551.58, 3292.31 1564.6, 3292.63 1577.61 C3292.95 1590.63, 3293.11 1603.66, 3293.11 1616.68" stroke="#000000" stroke-width="150" fill="none"></path></g><g stroke-linecap="round"><g transform="translate(946.7762878242834 2324.566338322313) rotate(347.8682118198819 927.0399259071282 -747.0047948997458)"><path d="M0 0 C547.36 -491.04, 1094.71 -982.07, 1665.37 -1494.01 M0 0 C453.55 -406.89, 907.11 -813.77, 1665.37 -1494.01 M1665.37 -1494.01 C1736.15 -1396.53, 1806.93 -1299.04, 1854.08 -1234.09 M1665.37 -1494.01 C1706.28 -1437.66, 1747.2 -1381.3, 1854.08 -1234.09 M1854.08 -1234.09 C1425.47 -948.81, 996.85 -663.52, 0 0 M1854.08 -1234.09 C1147.51 -763.79, 440.94 -293.49, 0 0" stroke="#000000" stroke-width="100" fill="none"></path></g></g><mask></mask><g stroke-linecap="round"><g transform="translate(1140.162303158164 2479.1356959153036) rotate(0 -330.03079742482123 -430.099833566984)"><path d="M0 0 C-101.2 -214.7, -202.4 -429.4, -425.2 -902.11 M0 0 C-148.55 -315.17, -297.11 -630.34, -425.2 -902.11 M-425.2 -902.11 C-486.85 -861.05, -548.49 -820, -660.06 -745.7 M-425.2 -902.11 C-497.74 -853.8, -570.27 -805.5, -660.06 -745.7 M-660.06 -745.7 C-432.12 -459.58, -204.18 -173.47, -32.6 41.91 M-660.06 -745.7 C-423.45 -448.69, -186.83 -151.69, -32.6 41.91" stroke="#000000" stroke-width="100" fill="none"></path></g></g><mask></mask></svg>
